<svg xmlns="http://www.w3.org/2000/svg" viewBox="0 0 1024 1024">
  <g fill="currentColor">
    <path d="M847.984 248.148a367 367 0 0 1-85.61 231.809 346.5 346.5 0 0 1-89.729 75.264l-.002.001-.29.169-.039.023c-2.695 1.576-4.356 2.669-7.619 4.467-3.02 1.664-5.839 3.007-8.207 3.813l-.018.006-.024.008c-.1.033-.442.128-1.038.221-.566.087-1.095.135-1.692.179-1.382.104-3.11.156-5.095.166-3.969.022-8.86-.123-13.843-.335-9.297-.395-19.506-1.056-23.605-1.217l-.509-.034h-.383c-39.478-1.336-80.76-.873-118.877-9.974l-.038-.009-2.447-.601c-25.241-6.349-49.019-16.925-73.743-25.686l-.009-.004-1.538-.538c-32.108-11.116-66.527-15.415-100.321-15.474-.871-.72-2.199-1.913-3.8-3.433a204 204 0 0 1-2.478-2.395l-1.832-1.804a364.5 364.5 0 0 1-106.592-237.99l-.608-10.995.002-5.658h.005V248zM655.639 564.002l-.086.033.08-.031.099-.038z"/>
    <path d="M753.35 632.75c24.05-19.65 53.75-40.25 78.85-59.05l40.35-30.2c19.6-14.55 46.4-36.2 72.25-34.2 9.6.7 27.9 8.1 25.25 20.7-3.15 12.65-20.2 28.2-29.15 37.5l-36.35 37.65-45.8 47.5c-25.25 26.1-49.9 51.8-81.35 70.5a1824 1824 0 0 1-43.3 24.8 4672 4672 0 0 0-50.5 29.1 2598 2598 0 0 0-49.1 29.8c-10.3 6.35-20.6 13.25-31.35 18.6a131 131 0 0 1-34.25 11.5c-30.55 5.6-62.8-1.4-92.85-7.35l-86.8-17.9c-52.6-10.95-109.15-25.75-157.8 6.7-56.1 37.5-122.6 146.35-157.7 205.6H0V749.1l100.4-103.8 33.85-35c8-8.3 18.25-19.2 27-26.55 38.5-32.55 96.25-46.65 145.5-48.15a286 286 0 0 1 118.2 21.25c23.6 9.5 47 18.35 72.2 22.9 23.25 4.2 47 5.35 70.7 6.4l67.25 2.5c20.35.7 39.4.8 59.5 4.35 20.5 3.65 34.5 17.85 34.45 38.9-.1 49.05-61.1 42.3-94.95 42.25h-88.85c-40.8 0-96.8-2.3-131.5 26.35-8.2 6.8-1 21.4 9.6 20.1 5.6-.45 12.1-6.65 16.95-9.1 32.25-16 72.65-13.65 107.5-13.65h87.85c35.6.05 83.3 4.3 106.55-29.4 7.5-10.9 10.15-22.7 11.15-35.7"/>
    <path d="M860 500.7a37.5 37.5 0 0 1 24.3 5.35c-18.3 12.4-36.25 26.3-54 39.5L756 600.9l-7.9 5.9a57 57 0 0 0-12.6-19.2q33.65-27 67.7-53.6c17.8-13.9 33.6-30 56.75-33.3m-71.15-.55a34.5 34.5 0 0 1 16.65 1.85c-29.5 23.8-60.05 47.7-89.95 71.1-1.25.8-13.4-3.35-16.8-4 4.5-3.2 9.45-6.2 14.1-9.5a379 379 0 0 0 57-49.75c7.15-7.55 8.85-7.9 19-9.7"/>
  </g>
</svg>
